<svg xmlns="http://www.w3.org/2000/svg" width="49" height="48" viewBox="0 0 49 48" fill="none"><g clip-path="url(#clip0_897_64033)"><rect x="0.5" width="48" height="48" rx="10.3579" fill="#28B894"></rect><path d="M37.2114 3.75318C37.6821 3.33106 37.7106 3.31457 38.0558 3.29385C38.6149 3.2531 39.1272 3.52199 39.9989 4.31564C42.0356 6.16652 44.8714 9.97183 46.6346 13.2212L47.3163 14.4819L48.2782 14.9605C49.2072 15.4299 50.7308 16.3923 51.3672 16.9085C51.655 17.1464 51.6956 17.1508 51.9947 17.0344C53.3454 16.5084 55.2803 17.206 56.9869 18.8432C58.5231 20.3155 59.9943 22.8312 60.558 24.9308C60.6403 25.2687 60.7493 25.9952 60.7891 26.5362C60.9177 28.4358 60.3092 29.9532 59.1362 30.64C58.8965 30.7784 58.8801 30.8158 58.8868 31.4132C58.9409 34.2583 58.1741 37.0985 56.6335 39.8679C54.8946 42.9773 51.7981 46.1938 47.6074 49.2243C45.357 50.8619 40.0323 53.964 37.6248 55.0532C31.8578 57.6496 27.2346 58.646 23.2188 58.154C20.8236 57.8638 18.1124 56.9287 16.5082 55.8433C16.086 55.5515 16.0191 55.5329 15.6966 55.6251C13.9793 56.1185 11.73 55.1053 9.81931 52.9844C9.05725 52.1366 7.82714 50.0548 7.42839 48.9409C6.50606 46.3339 6.68976 43.9816 7.91836 42.5767C8.23573 42.2149 8.2453 42.1995 8.17598 41.5912C8.06148 40.5951 8.00971 39.1206 8.06202 38.1692L8.10361 37.2803L6.76977 34.9212C4.70378 31.2451 3.3912 28.1582 2.88489 25.7998C2.61762 24.5066 2.63385 23.9324 2.96214 23.5078C3.16198 23.2515 3.81796 22.9866 4.60785 22.8407C6.59665 22.4917 10.9334 22.8076 15.7581 23.6595L16.259 23.7458L17.3608 22.7713C19.1891 21.1519 20.4038 20.244 22.6429 18.8478C24.9768 17.3876 27.6108 16.1858 30.577 15.2346L31.5295 14.9294L32.0526 13.5561C33.9257 8.61146 35.8437 4.96584 37.2114 3.75318ZM21.5208 29.0919C19.404 30.314 18.3453 30.9251 17.5676 31.6099C14.4179 34.3835 13.2414 38.777 14.5823 42.7537C14.9135 43.7357 15.5247 44.7942 16.7469 46.9111C17.9691 49.0279 18.5801 50.0865 19.2649 50.8643C22.0385 54.014 26.4316 55.1918 30.4084 53.8509C31.3904 53.5198 32.4489 52.9085 34.5657 51.6863L46.7442 44.6551C48.8613 43.4328 49.9205 42.8214 50.6983 42.1365C53.8479 39.363 55.0245 34.9695 53.6835 30.9927C53.3524 30.0107 52.7412 28.9522 51.519 26.8354C50.2968 24.7185 49.6858 23.66 49.0009 22.8822C46.2274 19.7325 41.8342 18.5547 37.8575 19.8956C36.8754 20.2267 35.8163 20.8383 33.6993 22.0606L21.5208 29.0919Z" fill="currentColor"></path><g transform="rotate(-30 22.6953 37.6011)"><rect id="eye-left-open" x="22.6953" y="37.6011" width="4.81084" height="9.99175" rx="2.40542" fill="currentColor" data-svg-origin="25.100719213485718 42.596975803375244" transform="matrix(1,0,0,1,0,0)" style="translate: none; rotate: none; scale: none; transform-origin: 0px 0px;"></rect></g><g transform="rotate(-30 35.6748 30.1074)"><rect id="eye-right-open" x="35.6748" y="30.1074" width="4.81084" height="9.99175" rx="2.40542" fill="currentColor" data-svg-origin="38.08022093772888 35.103275775909424" transform="matrix(1,0,0,1,0,0)" style="translate: none; rotate: none; scale: none; transform-origin: 0px 0px;"></rect></g></g><defs><linearGradient id="paint0_linear_897_64033" x1="24.5" y1="0" x2="24.5" y2="48" gradientUnits="userSpaceOnUse"><stop stop-color="#6C4DFF"></stop><stop offset="1" stop-color="#583ED3"></stop></linearGradient><linearGradient id="paint1_linear_897_64033" x1="20.4966" y1="13.2941" x2="42.9511" y2="52.1864" gradientUnits="userSpaceOnUse"><stop stop-color="currentColor" stop-opacity="0.8"></stop><stop offset="0.437689" stop-color="currentColor"></stop></linearGradient><clipPath id="clip0_897_64033"><rect x="0.5" width="48" height="48" rx="10.3579" fill="currentColor"></rect></clipPath></defs></svg>